<svg width="30" height="30" viewBox="0 0 30 30" fill="none" xmlns="http://www.w3.org/2000/svg">
<path d="M28.9339 23.6409L23.9963 18.7032C24.894 16.9077 25.4925 14.813 25.4925 12.7182C25.4925 5.68579 19.8067 0 12.7743 0C5.74188 0 0.0560913 5.68579 0.0560913 12.7182C0.0560913 19.7506 5.74188 25.4364 12.7743 25.4364C14.8691 25.4364 16.9638 24.8379 18.7594 23.9401L23.697 28.8778C25.1933 30.3741 27.4377 30.3741 28.9339 28.8778C30.2806 27.3815 30.2806 25.1372 28.9339 23.6409ZM12.7743 22.4439C7.38777 22.4439 3.04861 18.1047 3.04861 12.7182C3.04861 7.33167 7.38777 2.99252 12.7743 2.99252C18.1609 2.99252 22.5 7.33167 22.5 12.7182C22.5 18.1047 18.1609 22.4439 12.7743 22.4439Z" fill="#6E6E6E"/>
</svg>
